<svg xmlns="http://www.w3.org/2000/svg" width="166" height="207">
  <path fill="#0367d8" d="M40.48 75.77L38.37 75.77L38.37 103.65C38.37 114.05 31.07 120.67 21.96 120.67C13.11 120.67 6.96 115.13 6.96 105.59L6.96 75.77L4.86 75.77L4.86 105.89C4.86 116.20 11.77 122.69 21.74 122.69C29.56 122.69 36.57 117.66 38.41 111.21L38.50 111.21L38.50 122L40.48 122ZM50.79 122L52.89 122L52.89 94.24C52.89 84.14 59.47 77.05 68.96 77.05C77.99 77.05 84.30 82.81 84.30 92.18L84.30 122L86.41 122L86.41 92.09C86.41 81.70 79.41 75.08 69.22 75.08C61.14 75.08 54.83 79.85 52.85 86.68L52.77 86.68L52.77 75.77L50.79 75.77ZM96.85 122L98.96 122L98.96 75.77L96.85 75.77ZM97.93 63.30C99.04 63.30 99.99 62.36 99.99 61.24C99.99 60.08 99.04 59.18 97.93 59.18C96.77 59.18 95.82 60.08 95.82 61.24C95.82 62.36 96.77 63.30 97.93 63.30ZM108.50"/>
  <path d="M108.50 87.28C108.50 93.21 112.41 96.43 120.14 98.28L127.40 99.96C135.61 101.89 138.88 104.86 138.88 110.14C138.88 116.50 132.30 120.71 124.18 120.71C115.84 120.71 109.66 115.43 109.10 108.94L106.95 108.94C107.42 116.46 114.30 122.69 124.22 122.69C133.98 122.69 141.02 117.57 141.02 110.01C141.02 103.74 137.20 100.26 128.05 98.02L120.87 96.30C113.87 94.67 110.60 92.22 110.60 87.24C110.60 81.18 116.88 77.05 124.05 77.05C132.34 77.05 137.46 82.13 138.23 89.17L140.29 89.17C139.48 80.54 133.33 75.08 124.05 75.08C115.50 75.08 108.50 80.06 108.50 87.28ZM151.16 63.39L151.16 75.77L144.29 75.77L144.29 77.70L151.16 77.70L151.16 111.95C151.16 119.16 153.91 122.04 160.14 122.04C160.27 122.04 163.37 122 163.45 122L163.45 120.02C163.41 120.02 160.32 120.07 160.27 120.07C155.38 120.07 153.27 117.79 153.27 111.90L153.27 77.70L162.64 77.70L162.64 75.77L153.27 75.77L153.27 63.39Z"/>
</svg>
