<svg height="320" viewBox="0 0 320 320" width="320" xmlns="http://www.w3.org/2000/svg">
  <style>
    .b {fill: #0d1117}
    .l {fill: #fff}
    @media (prefers-color-scheme: light) {
      .b {fill: #fff}
      .l {fill: #0d1117}
    }
  </style>
  <rect class="b" height="320" width="320" x="0" y="0" />
  <path d="M444.49 173.32L444.49 141.77L440.65 141.77L440.65 160.52Q440.65 164.91 438.03 167.65Q435.41 170.39 431.16 170.39L431.16 170.39Q427.18 170.39 425.27 168.16Q423.37 165.94 423.37 161.31L423.37 161.31L423.37 141.77L419.53 141.77L419.53 162.28Q419.53 167.90 422.25 170.87Q424.98 173.85 430.14 173.85L430.14 173.85Q433.80 173.85 436.48 172.24Q439.16 170.63 440.45 167.64L440.45 167.64L440.83 167.64L440.83 173.32L444.49 173.32ZM456.62 141.77L456.62 173.32L460.46 173.32L460.46 154.57Q460.46 150.18 463.08 147.44Q465.70 144.70 469.95 144.70L469.95 144.70Q473.93 144.70 475.84 146.92Q477.74 149.15 477.74 153.78L477.74 153.78L477.74 173.32L481.58 173.32L481.58 152.81Q481.58 147.19 478.86 144.21Q476.13 141.24 470.98 141.24L470.98 141.24Q467.31 141.24 464.63 142.85Q461.95 144.46 460.66 147.45L460.66 147.45L460.28 147.45L460.28 141.77L456.62 141.77ZM506.78 133.42L506.78 133.42Q508.27 133.42 509.34 132.35Q510.41 131.28 510.41 129.79L510.41 129.79Q510.41 128.29 509.34 127.22Q508.27 126.15 506.78 126.15L506.78 126.15Q505.28 126.15 504.21 127.22Q503.14 128.29 503.14 129.79L503.14 129.79Q503.14 131.28 504.21 132.35Q505.28 133.42 506.78 133.42ZM494.18 173.32L519.93 173.32L519.93 170.21L509.12 170.21L509.12 141.77L494.12 141.77L494.12 144.87L505.28 144.87L505.28 170.21L494.18 170.21L494.18 173.32Z" fill="#0366d6" transform="translate(-348, 0)" />
  <path class="l" d="M532.26 149.97L532.26 149.97Q532.26 156.39 540.64 158.35L540.64 158.35L545.30 159.46Q548.52 160.22 549.90 161.47Q551.28 162.71 551.28 164.88L551.28 164.88Q551.28 167.46 549.18 169.01Q547.09 170.57 543.54 170.57L543.54 170.57Q540.26 170.57 538.08 169.20Q535.90 167.84 535.28 165.41L535.28 165.41L531.30 165.41Q531.74 169.31 534.99 171.58Q538.24 173.85 543.37 173.85L543.37 173.85Q548.76 173.85 552.01 171.33Q555.26 168.81 555.26 164.65L555.26 164.65Q555.26 161.31 553.12 159.24Q550.99 157.18 546.44 156.09L546.44 156.09L542.17 155.10Q538.94 154.34 537.54 153.11Q536.13 151.88 536.13 149.82L536.13 149.82Q536.13 147.36 538.09 145.90Q540.06 144.43 543.34 144.43L543.34 144.43Q546.36 144.43 548.38 145.77Q550.40 147.10 550.90 149.41L550.90 149.41L554.68 149.41Q554.18 145.66 551.13 143.45Q548.08 141.24 543.46 141.24L543.46 141.24Q538.48 141.24 535.37 143.66Q532.26 146.07 532.26 149.97ZM579.26 133.56L575.42 133.56L575.42 141.77L566.92 141.77L566.92 145.02L575.42 145.02L575.42 164.21Q575.42 167.31 576.68 169.38Q577.94 171.45 580.46 172.47Q582.98 173.50 586.76 173.50L586.76 173.50Q588.13 173.50 589.95 173.38Q591.77 173.26 592.47 173.14L592.47 173.14L592.47 169.86Q591.71 169.98 590.16 170.04Q588.60 170.10 586.96 170.10L586.96 170.10Q583.21 170.10 581.23 168.56Q579.26 167.02 579.26 164.09L579.26 164.09L579.26 145.02L592.47 145.02L592.47 141.77L579.26 141.77L579.26 133.56Z" transform="translate(-348, 0)" />
</svg>
