<svg xmlns="http://www.w3.org/2000/svg" width="400" height="400" viewBox="0 0 410 210">
  <path fill="#0367d8" d="M42.58 80.84L35.15 80.84L35.15 108.81C35.15 115.99 30.59 120.07 24.11 120.07C18.18 120.07 13.32 117.36 13.32 108.94L13.32 80.84L5.89 80.84L5.89 111.05C5.89 121.40 12.55 126.73 21.87 126.73C29.09 126.73 33.34 123.64 34.93 120.07L35.23 120.07L35.23 126L42.58 126ZM55.73 126L63.12 126L63.12 98.50C63.12 92.31 66.47 86.81 74.25 86.81C80.82 86.81 85.29 90.68 85.29 98.29L85.29 126L92.68 126L92.68 97.04C92.68 86.04 85.77 80.11 76.48 80.11C69.14 80.11 64.97 83.93 63.29 86.81L63.08 86.81L63.08 80.84L55.73 80.84ZM105.57 126L112.96 126L112.96 80.84L105.57 80.84ZM104.54 69.97C104.54 72.59 106.65 74.65 109.27 74.65C111.89 74.65 114.04 72.59 114.04 69.97C114.04 67.30 111.89 65.24 109.27 65.24C106.65 65.24 104.54 67.30 104.54 69.97Z"/>
  <path d="M124.74 93.77C124.74 101.94 131.66 104.52 140.08 106.23C146.39 107.48 151.42 108.47 151.42 113.58C151.42 117.41 148.29 120.67 141.37 120.67C135.35 120.67 131.83 117.96 131.18 113.84L123.96 113.84C123.96 121.96 130.88 126.73 140.81 126.73C151.42 126.73 158.68 121.66 158.68 112.68C158.68 103.87 151.55 101.59 143.09 100.09C137.93 99.14 131.96 98.07 131.96 93C131.96 88.53 135.82 86.17 141.20 86.17C148.24 86.17 150.39 90.21 150.65 93.64L157.52 93.64C157.52 86.17 152.07 80.11 141.45 80.11C132.77 80.11 124.74 84.23 124.74 93.77ZM172.05 80.84L165.95 80.84L165.95 87.03L172.00 87.03L172.00 113.37C172.00 122.26 174.20 126.39 184.89 126.39C186.44 126.39 187.99 126.21 188.63 126.09L188.63 120.16C188.03 120.24 187.47 120.24 186.74 120.24C181.20 120.24 179.39 118.87 179.39 113.45L179.39 87.03L188.33 87.03L188.33 80.84L179.39 80.84L179.39 69.58L172.05 69.58Z"/>
</svg>
